:SAMPLES-PER-SECOND 30
:FULLY-SPECIFIED
:DEGREES
64
root  33.0664 37.471 -8.8859 133.12 -87.1134 -132.002
RightUpLeg  -6.12398 -7.53387 4.70352
RightLeg  35.5295 -3.89342 -3.25496
RightFoot  -26.6984 -0.489125 -2.28936
RightToes  1.74622e-010 0 -3.6325e-017
Spine  9.66627 0.423846 14.5814
Spine1  7.03337 3.61383 -6.34987
HEad  -16.0639 -0.223535 -3.95243
LeftShoulder1  9.56681 -12.8367 -51.0919
LeftArm  5.41342 27.0619 -23.8392
LeftForeArm  177.2 -64.5605 -160.104
LeftHand  -0.244104 0.0205437 5.32207
RightShoulder  7.01061 10.4528 43.8199
RightArm  -0.571396 -15.1691 34.6885
RightForeArm  142.897 71.1892 147.707
RightHand  0.26059 -8.69149 -10.2352
LeftUpLeg  -23.2844 2.09346 3.46415
LeftLeg  65.5818 3.7238 9.55017
LeftFoot  -10.62 0.0839503 -3.32575
LeftToes  -5.82109e-011 8.55049e-011 -1.09726e-011
65
root  30.7293 38.4791 -9.09706 -159.388 -88.399 161.212
RightUpLeg  0.201965 -8.08474 0.737877
RightLeg  28.1805 -2.46769 -1.69976
RightFoot  -22.1548 -0.151398 0.133609
RightToes  1.74622e-010 0 -3.6325e-017
Spine  8.29418 2.51413 12.3663
Spine1  6.56343 5.84192 -8.91692
HEad  -13.3593 -3.07699 -1.83156
LeftShoulder1  8.96378 -12.3474 -49.3643
LeftArm  7.39324 32.1663 -21.2824
LeftForeArm  178.995 -62.6684 -161.796
LeftHand  -0.244104 0.0205437 5.32207
RightShoulder  7.01748 10.3959 44.0541
RightArm  2.12572 -14.5062 36.7961
RightForeArm  148.044 68.3894 152.723
RightHand  0.278815 -9.39384 -9.03895
LeftUpLeg  -25.0657 3.89471 -0.484921
LeftLeg  55.3293 6.17779 9.9755
LeftFoot  -11.5975 0.0605752 -4.60672
LeftToes  -5.82109e-011 8.55049e-011 -1.09726e-011
66
root  28.3559 39.4389 -9.21193 -94.3266 -87.461 97.1572
RightUpLeg  5.22245 -10.6899 -2.86092
RightLeg  22.1781 0.648127 0.0790656
RightFoot  -14.195 -0.00673205 4.10069
RightToes  1.74622e-010 0 -3.6325e-017
Spine  6.368 3.9379 10.5937
Spine1  5.97672 7.16604 -10.5669
HEad  -9.25002 -5.12268 -0.688161
LeftShoulder1  8.47894 -12.0222 -47.6633
LeftArm  7.91781 37.5014 -19.2769
LeftForeArm  -179.436 -61.0779 -163.062
LeftHand  -0.244104 0.0205437 5.32207
RightShoulder  6.83081 10.2301 43.3606
RightArm  6.65352 -13.9531 37.532
RightForeArm  151.458 67.1779 154.612
RightHand  0.159237 -9.74821 -5.6829
LeftUpLeg  -25.6505 5.93086 -4.25091
LeftLeg  42.2015 8.0423 8.19921
LeftFoot  -11.5603 0.0612745 -4.03185
LeftToes  -5.82109e-011 8.55049e-011 -1.09726e-011
67
root  25.9989 40.1542 -9.24083 -68.6648 -86.7866 72.187
RightUpLeg  8.07596 -13.7316 -5.20438
RightLeg  20.393 3.68641 1.35273
RightFoot  -4.05167 -0.467943 7.08562
RightToes  1.74622e-010 0 -3.6325e-017
Spine  4.42011 4.73178 9.95402
Spine1  6.09402 7.86009 -11.3156
HEad  -5.38032 -6.70434 -0.372724
LeftShoulder1  8.2933 -12.0551 -46.4965
LeftArm  6.71228 42.5164 -18.0657
LeftForeArm  -178.964 -59.4079 -164.174
LeftHand  -0.244104 0.0205437 5.32207
RightShoulder  6.51263 10.125 41.5543
RightArm  10.8759 -13.5918 38.1103
RightForeArm  159.518 66.3215 156.491
RightHand  -0.1137 -10.6042 1.1637
LeftUpLeg  -25.0557 8.56358 -7.38088
LeftLeg  28.5003 6.20574 4.2312
LeftFoot  -11.5736 0.0622203 -3.29165
LeftToes  -5.82109e-011 8.55049e-011 -1.09726e-011
68
root  23.7042 40.4973 -9.25416 -48.5047 -86.4035 51.8295
RightUpLeg  8.78457 -12.9761 -5.56806
RightLeg  23.6348 3.67425 1.51844
RightFoot  4.17355 -1.07854 8.16506
RightToes  1.74622e-010 0 -3.6325e-017
Spine  3.23167 5.20983 9.50193
Spine1  7.17182 8.23877 -11.0319
HEad  -3.16668 -7.97787 -0.254251
LeftShoulder1  8.33949 -12.3115 -45.9836
LeftArm  3.80787 45.9205 -18.2675
LeftForeArm  -179.604 -58.131 -164.873
LeftHand  -0.244104 0.0205437 5.32207
RightShoulder  6.40259 10.2907 40.262
RightArm  14.1205 -13.1597 37.4417
RightForeArm  166.756 65.098 158.514
RightHand  -0.338399 -11.0306 5.59026
LeftUpLeg  -23.2771 10.0551 -9.11237
LeftLeg  16.9585 3.12709 0.441388
LeftFoot  -12.592 0.0223104 -4.71443
LeftToes  -5.82109e-011 8.55049e-011 -1.09726e-011
69
root  21.4695 40.3567 -9.273 -37.7535 -86.1155 40.0767
RightUpLeg  8.15646 -8.44892 -4.68919
RightLeg  30.8712 1.27897 0.563913
RightFoot  7.21596 -1.36759 8.67266
RightToes  1.74622e-010 0 -3.6325e-017
Spine  3.0812 5.47696 8.64879
Spine1  8.2976 8.38204 -10.2457
HEad  -2.28741 -8.67799 0.0856245
LeftShoulder1  8.28152 -12.5016 -45.0905
LeftArm  -0.441016 48.0504 -20.7013
LeftForeArm  -179.715 -57.4599 -165.236
LeftHand  -0.244104 0.0205437 5.32207
RightShoulder  6.51802 10.6196 40.0111
RightArm  16.8243 -12.5555 35.5585
RightForeArm  167.126 64.2445 159.325
RightHand  -0.294847 -11.0065 4.62908
LeftUpLeg  -20.659 4.52781 -7.24788
LeftLeg  9.50529 8.48138 -2.8063
LeftFoot  -12.9971 -0.00517967 -6.09904
LeftToes  -5.82109e-011 8.55049e-011 -1.09726e-011
70
root  19.2547 39.7995 -9.26728 -36.4645 -85.9912 37.3698
RightUpLeg  6.83563 -3.79647 -4.39744
RightLeg  40.5774 -1.19343 -1.3947
RightFoot  6.63409 -1.38643 9.03981
RightToes  1.74622e-010 0 -3.6325e-017
Spine  3.8541 5.35411 7.39865
Spine1  8.57959 8.11756 -9.44917
HEad  -2.27933 -8.48602 0.470537
LeftShoulder1  7.93954 -12.3856 -43.4641
LeftArm  -5.17167 49.7694 -24.7149
LeftForeArm  -178.314 -56.5152 -165.851
LeftHand  -0.244104 0.0205437 5.32207
RightShoulder  6.57048 10.79 39.8371
RightArm  18.7733 -11.9439 34.1771
RightForeArm  164.761 64.2499 159.074
RightHand  -0.252049 -11.0579 3.71814
LeftUpLeg  -19.1649 2.18081 -7.25163
LeftLeg  8.26923 12.4357 -3.55719
LeftFoot  -10.4637 0.0677828 -3.51511
LeftToes  -5.82109e-011 8.55049e-011 -1.09726e-011
71
root  17.0815 39.0588 -9.2273 -42.7593 -85.6777 41.9549
RightUpLeg  4.72167 -0.578999 -5.64034
RightLeg  50.9999 -2.9613 -4.28802
RightFoot  5.64164 -1.18115 8.15948
RightToes  1.74622e-010 0 -3.6325e-017
Spine  5.51449 4.69899 5.48407
Spine1  8.25081 7.24164 -8.26776
HEad  -3.85398 -7.47145 0.55301
LeftShoulder1  7.52859 -11.7968 -42.7728
LeftArm  -9.04588 49.6434 -27.5117
LeftForeArm  -177.175 -55.5531 -166.449
LeftHand  -0.244104 0.0205437 5.32207
RightShoulder  6.5385 10.7126 39.8637
RightArm  18.9459 -11.1151 33.5382
RightForeArm  164.654 65.2783 158.155
RightHand  -0.418632 -11.4543 6.53359
LeftUpLeg  -19.291 8.3868 -10.9945
LeftLeg  14.3449 7.53654 -1.00571
LeftFoot  -6.35182 -0.105986 3.19558
LeftToes  -5.82109e-011 8.55049e-011 -1.09726e-011
72
root  15.0607 38.3483 -9.18636 -54.8418 -84.8886 52.1322
RightUpLeg  1.17576 1.69391 -8.13376
RightLeg  60.7788 -3.64796 -7.54375
RightFoot  4.49111 -0.664165 4.95577
RightToes  1.74622e-010 0 -3.6325e-017
Spine  8.02632 3.84532 2.91526
Spine1  8.08561 6.07939 -6.86509
HEad  -7.05456 -6.16202 0.400842
LeftShoulder1  7.41798 -11.0244 -44.4657
LeftArm  -11.1268 45.3017 -26.8822
LeftForeArm  -177.877 -57.226 -165.496
LeftHand  -0.244104 0.0205437 5.32207
RightShoulder  6.74331 10.657 41.391
RightArm  16.7191 -9.99952 32.7196
RightForeArm  163.306 68.7661 154.102
RightHand  -0.492177 -11.166 8.21943
LeftUpLeg  -19.6724 13.6156 -14.5776
LeftLeg  23.0373 2.62614 2.01594
LeftFoot  -5.19597 -0.472217 9.76001
LeftToes  -5.82109e-011 8.55049e-011 -1.09726e-011
73
root  13.2315 37.9346 -9.14339 -67.6617 -83.947 63.2399
RightUpLeg  -3.90519 3.59984 -10.6862
RightLeg  67.7395 -3.73757 -10.6617
RightFoot  2.23338 -0.0884634 0.855489
RightToes  1.74622e-010 0 -3.6325e-017
Spine  10.7039 3.12753 0.986305
Spine1  8.30913 5.22662 -6.52631
HEad  -9.74843 -5.07343 0.325383
LeftShoulder1  7.84503 -10.8969 -47.5154
LeftArm  -12.2259 37.4344 -24.359
LeftForeArm  -179.425 -63.0481 -161.507
LeftHand  -0.244104 0.0205437 5.32207
RightShoulder  7.22157 10.8034 44.0415
RightArm  12.2487 -9.46806 32.5361
RightForeArm  150.523 75.728 137.958
RightHand  -0.291138 -11.098 4.59991
LeftUpLeg  -18.1062 12.1292 -14.9114
LeftLeg  29.7936 5.24254 3.56882
LeftFoot  -8.76873 -0.228058 11.9849
LeftToes  -5.82109e-011 8.55049e-011 -1.09726e-011
74
root  11.4637 38.006 -9.03857 -74.4364 -83.7381 68.856
RightUpLeg  -9.52506 4.40571 -11.9467
RightLeg  69.7161 -4.13176 -12.9855
RightFoot  -0.504596 0.0949155 -0.97075
RightToes  1.74622e-010 0 -3.6325e-017
Spine  12.3822 2.25285 1.00227
Spine1  8.617 4.5214 -7.23513
HEad  -9.89081 -4.1158 0.258756
LeftShoulder1  8.62829 -11.6231 -49.7886
LeftArm  -13.1844 29.7274 -22.8163
LeftForeArm  179.299 -69.9617 -154.665
LeftHand  -0.244104 0.0205437 5.32207
RightShoulder  7.55054 10.9497 45.6539
RightArm  6.26934 -10.4223 33.9648
RightForeArm  104.108 80.6666 85.8311
RightHand  -0.0681311 -13.0829 -0.0357329
LeftUpLeg  -14.4658 12.2347 -14.5697
LeftLeg  31.5827 6.36948 4.55328
LeftFoot  -13.255 0.253339 10.5157
LeftToes  -5.82109e-011 8.55049e-011 -1.09726e-011
